<svg width="406" height="654" viewBox="0 0 406 654" fill="none" xmlns="http://www.w3.org/2000/svg">
<path d="M325.247 217.32H401.574V212.025C401.348 94.8857 311.749 0 201.25 0C90.7509 0 1.15417 94.8857 0.925349 212.025C0.925349 212.025 -9.34082 344.727 73.7489 388.775L77.175 212.025C77.4141 143.345 132.87 87.7417 201.25 87.7417C269.63 87.7417 325.084 143.345 325.323 212.025L325.247 217.32Z" fill="#364657"/>
<path d="M330.79 261.315L327.364 438.064C327.125 506.744 268.702 566.083 200.324 566.083C131.947 566.083 76.4907 510.48 76.2517 441.8L76.4254 429.755H0V441.8C0.226775 558.939 89.8255 653.825 200.324 653.825C310.823 653.825 404.437 560.242 404.663 443.102C404.661 443.104 414.797 324.026 330.79 261.315Z" fill="#364657"/>
<path d="M201.048 286.495C253.682 286.495 296.351 246.211 296.351 196.518C296.351 146.825 253.682 106.541 201.048 106.541C148.413 106.541 105.745 146.825 105.745 196.518C105.745 246.211 148.413 286.495 201.048 286.495Z" fill="#364657"/>
</svg>
